<svg width="200" height="60" viewBox="0 0 200 60" fill="none" xmlns="http://www.w3.org/2000/svg">
<rect width="200" height="60" rx="5" fill="#333333"/>
<path d="M83.534 46.216C82.442 46.216 81.464 45.982 80.6 45.514C79.748 45.046 79.076 44.362 78.584 43.462C78.092 42.55 77.846 41.458 77.846 40.186C77.846 38.926 78.098 37.834 78.602 36.91C79.106 35.974 79.784 35.26 80.636 34.768C81.5 34.276 82.46 34.03 83.516 34.03C84.944 34.03 86.162 34.534 87.17 35.542L85.874 37.126C85.538 36.814 85.19 36.58 84.83 36.424C84.482 36.256 84.074 36.172 83.606 36.172C82.634 36.172 81.854 36.526 81.266 37.234C80.678 37.93 80.384 38.884 80.384 40.096C80.384 41.368 80.672 42.352 81.248 43.048C81.824 43.732 82.67 44.074 83.786 44.074C84.05 44.074 84.308 44.038 84.56 43.966C84.812 43.894 85.016 43.798 85.172 43.678V41.482H83.138V39.466H87.368V44.794C86.936 45.214 86.384 45.556 85.712 45.82C85.04 46.084 84.314 46.216 83.534 46.216ZM93.4118 46.216C92.6438 46.216 91.9298 46.03 91.2698 45.658C90.6218 45.286 90.0998 44.746 89.7038 44.038C89.3078 43.33 89.1098 42.502 89.1098 41.554C89.1098 40.594 89.3078 39.76 89.7038 39.052C90.0998 38.344 90.6218 37.804 91.2698 37.432C91.9298 37.06 92.6438 36.874 93.4118 36.874C94.1678 36.874 94.8758 37.06 95.5358 37.432C96.1958 37.804 96.7238 38.35 97.1198 39.07C97.5158 39.778 97.7138 40.606 97.7138 41.554C97.7138 42.502 97.5158 43.33 97.1198 44.038C96.7238 44.746 96.1958 45.286 95.5358 45.658C94.8758 46.03 94.1678 46.216 93.4118 46.216ZM93.4118 44.218C93.9758 44.218 94.4138 43.984 94.7258 43.516C95.0378 43.036 95.1938 42.382 95.1938 41.554C95.1938 40.726 95.0378 40.072 94.7258 39.592C94.4138 39.112 93.9758 38.872 93.4118 38.872C92.8358 38.872 92.3918 39.112 92.0798 39.592C91.7798 40.072 91.6298 40.726 91.6298 41.554C91.6298 42.382 91.7798 43.036 92.0798 43.516C92.3918 43.984 92.8358 44.218 93.4118 44.218ZM103.361 46.216C102.593 46.216 101.879 46.03 101.219 45.658C100.571 45.286 100.049 44.746 99.653 44.038C99.257 43.33 99.059 42.502 99.059 41.554C99.059 40.594 99.257 39.76 99.653 39.052C100.049 38.344 100.571 37.804 101.219 37.432C101.879 37.06 102.593 36.874 103.361 36.874C104.117 36.874 104.825 37.06 105.485 37.432C106.145 37.804 106.673 38.35 107.069 39.07C107.465 39.778 107.663 40.606 107.663 41.554C107.663 42.502 107.465 43.33 107.069 44.038C106.673 44.746 106.145 45.286 105.485 45.658C104.825 46.03 104.117 46.216 103.361 46.216ZM103.361 44.218C103.925 44.218 104.363 43.984 104.675 43.516C104.987 43.036 105.143 42.382 105.143 41.554C105.143 40.726 104.987 40.072 104.675 39.592C104.363 39.112 103.925 38.872 103.361 38.872C102.785 38.872 102.341 39.112 102.029 39.592C101.729 40.072 101.579 40.726 101.579 41.554C101.579 42.382 101.729 43.036 102.029 43.516C102.341 43.984 102.785 44.218 103.361 44.218ZM112.698 49.834C111.594 49.834 110.694 49.642 109.998 49.258C109.314 48.874 108.972 48.31 108.972 47.566C108.972 46.822 109.398 46.21 110.25 45.73V45.658C109.71 45.31 109.44 44.806 109.44 44.146C109.44 43.834 109.53 43.528 109.71 43.228C109.902 42.928 110.142 42.682 110.43 42.49V42.418C110.082 42.178 109.794 41.854 109.566 41.446C109.35 41.038 109.242 40.588 109.242 40.096C109.242 39.424 109.404 38.848 109.728 38.368C110.064 37.876 110.508 37.504 111.06 37.252C111.612 37 112.212 36.874 112.86 36.874C113.316 36.874 113.772 36.946 114.228 37.09H117.45V38.89H115.956C116.064 39.034 116.154 39.226 116.226 39.466C116.298 39.694 116.334 39.928 116.334 40.168C116.334 41.14 116.01 41.884 115.362 42.4C114.714 42.916 113.88 43.174 112.86 43.174C112.488 43.174 112.116 43.114 111.744 42.994C111.624 43.102 111.534 43.21 111.474 43.318C111.414 43.414 111.384 43.546 111.384 43.714C111.384 43.942 111.486 44.116 111.69 44.236C111.906 44.356 112.26 44.416 112.752 44.416H114.246C115.35 44.416 116.184 44.596 116.748 44.956C117.312 45.316 117.594 45.886 117.594 46.666C117.594 47.266 117.39 47.806 116.982 48.286C116.586 48.778 116.016 49.156 115.272 49.42C114.54 49.696 113.682 49.834 112.698 49.834ZM112.86 41.68C113.256 41.68 113.574 41.542 113.814 41.266C114.066 40.99 114.192 40.6 114.192 40.096C114.192 39.604 114.066 39.226 113.814 38.962C113.574 38.686 113.256 38.548 112.86 38.548C112.464 38.548 112.146 38.686 111.906 38.962C111.666 39.226 111.546 39.604 111.546 40.096C111.546 40.588 111.666 40.978 111.906 41.266C112.158 41.542 112.476 41.68 112.86 41.68ZM113.076 48.286C113.7 48.286 114.216 48.166 114.624 47.926C115.032 47.698 115.236 47.416 115.236 47.08C115.236 46.792 115.122 46.594 114.894 46.486C114.666 46.378 114.306 46.324 113.814 46.324H112.788C112.26 46.324 111.852 46.282 111.564 46.198C111.192 46.498 111.006 46.822 111.006 47.17C111.006 47.53 111.192 47.806 111.564 47.998C111.936 48.19 112.44 48.286 113.076 48.286ZM121.379 46.216C120.575 46.216 119.993 45.97 119.633 45.478C119.273 44.986 119.093 44.29 119.093 43.39V33.346H121.541V43.498C121.541 43.75 121.589 43.936 121.685 44.056C121.781 44.164 121.889 44.218 122.009 44.218C122.129 44.218 122.237 44.206 122.333 44.182L122.639 46.018C122.291 46.15 121.871 46.216 121.379 46.216ZM131.536 41.14C131.536 41.596 131.5 41.968 131.428 42.256H125.92C126.04 42.964 126.328 43.486 126.784 43.822C127.252 44.158 127.792 44.326 128.404 44.326C129.04 44.326 129.7 44.128 130.384 43.732L131.194 45.226C130.75 45.538 130.252 45.784 129.7 45.964C129.16 46.132 128.62 46.216 128.08 46.216C127.24 46.216 126.478 46.03 125.794 45.658C125.122 45.286 124.588 44.746 124.192 44.038C123.808 43.33 123.616 42.502 123.616 41.554C123.616 40.618 123.808 39.796 124.192 39.088C124.588 38.38 125.104 37.834 125.74 37.45C126.376 37.066 127.054 36.874 127.774 36.874C128.986 36.874 129.916 37.27 130.564 38.062C131.212 38.842 131.536 39.868 131.536 41.14ZM129.43 40.618C129.43 40.042 129.298 39.592 129.034 39.268C128.77 38.932 128.368 38.764 127.828 38.764C127.384 38.764 126.988 38.92 126.64 39.232C126.304 39.532 126.076 39.994 125.956 40.618H129.43ZM137.203 34.246H141.127C142.543 34.246 143.665 34.54 144.493 35.128C145.333 35.704 145.753 36.652 145.753 37.972C145.753 39.268 145.327 40.246 144.475 40.906C143.623 41.566 142.531 41.896 141.199 41.896H139.669V46H137.203V34.246ZM141.037 39.934C142.573 39.934 143.341 39.28 143.341 37.972C143.341 37.348 143.143 36.898 142.747 36.622C142.363 36.346 141.769 36.208 140.965 36.208H139.669V39.934H141.037ZM149.944 46.216C149.14 46.216 148.558 45.97 148.198 45.478C147.838 44.986 147.658 44.29 147.658 43.39V33.346H150.106V43.498C150.106 43.75 150.154 43.936 150.25 44.056C150.346 44.164 150.454 44.218 150.574 44.218C150.694 44.218 150.802 44.206 150.898 44.182L151.204 46.018C150.856 46.15 150.436 46.216 149.944 46.216ZM154.934 46.216C154.142 46.216 153.5 45.964 153.008 45.46C152.528 44.956 152.288 44.32 152.288 43.552C152.288 42.604 152.69 41.872 153.494 41.356C154.298 40.828 155.588 40.468 157.364 40.276C157.328 39.316 156.836 38.836 155.888 38.836C155.516 38.836 155.138 38.908 154.754 39.052C154.37 39.196 153.95 39.4 153.494 39.664L152.612 38.044C153.872 37.264 155.12 36.874 156.356 36.874C157.496 36.874 158.36 37.21 158.948 37.882C159.536 38.542 159.83 39.532 159.83 40.852V46H157.814L157.634 45.064H157.58C156.692 45.832 155.81 46.216 154.934 46.216ZM155.744 44.308C156.044 44.308 156.314 44.242 156.554 44.11C156.806 43.966 157.076 43.756 157.364 43.48V41.77C156.392 41.902 155.696 42.1 155.276 42.364C154.856 42.628 154.646 42.958 154.646 43.354C154.646 43.666 154.742 43.906 154.934 44.074C155.126 44.23 155.396 44.308 155.744 44.308ZM163.024 49.546C162.592 49.546 162.178 49.486 161.782 49.366L162.232 47.476C162.484 47.56 162.688 47.602 162.844 47.602C163.636 47.602 164.176 47.17 164.464 46.306L164.608 45.802L161.152 37.09H163.636L164.986 41.104C165.13 41.524 165.298 42.082 165.49 42.778C165.574 43.102 165.652 43.384 165.724 43.624H165.796C165.952 42.94 166.162 42.1 166.426 41.104L167.596 37.09H169.954L166.822 46.198C166.39 47.35 165.892 48.196 165.328 48.736C164.764 49.276 163.996 49.546 163.024 49.546Z" fill="#FBF9FC"/>
<path d="M78.288 13.802H80.542C81.942 13.802 83.006 14.1987 83.734 14.992C84.4713 15.7853 84.84 16.91 84.84 18.366C84.84 19.822 84.4713 20.9607 83.734 21.782C83.006 22.594 81.956 23 80.584 23H78.288V13.802ZM80.458 22.146C81.5593 22.146 82.3853 21.8193 82.936 21.166C83.496 20.5033 83.776 19.57 83.776 18.366C83.776 17.1807 83.496 16.266 82.936 15.622C82.3853 14.978 81.5593 14.656 80.458 14.656H79.324V22.146H80.458ZM89.3659 23.168C88.8059 23.168 88.2879 23.028 87.8119 22.748C87.3359 22.4587 86.9533 22.048 86.6639 21.516C86.3839 20.9747 86.2439 20.34 86.2439 19.612C86.2439 18.884 86.3839 18.2493 86.6639 17.708C86.9533 17.1667 87.3359 16.756 87.8119 16.476C88.2879 16.1867 88.8059 16.042 89.3659 16.042C89.9259 16.042 90.4439 16.1867 90.9199 16.476C91.3959 16.756 91.7739 17.1667 92.0539 17.708C92.3433 18.2493 92.4879 18.884 92.4879 19.612C92.4879 20.34 92.3433 20.9747 92.0539 21.516C91.7739 22.048 91.3959 22.4587 90.9199 22.748C90.4439 23.028 89.9259 23.168 89.3659 23.168ZM89.3659 22.314C89.7673 22.314 90.1219 22.202 90.4299 21.978C90.7473 21.754 90.9946 21.4367 91.1719 21.026C91.3493 20.6153 91.4379 20.144 91.4379 19.612C91.4379 19.08 91.3493 18.6087 91.1719 18.198C90.9946 17.7873 90.7473 17.47 90.4299 17.246C90.1219 17.0127 89.7673 16.896 89.3659 16.896C88.9646 16.896 88.6053 17.0127 88.2879 17.246C87.9799 17.47 87.7373 17.7873 87.5599 18.198C87.3919 18.6087 87.3079 19.08 87.3079 19.612C87.3079 20.424 87.4993 21.0773 87.8819 21.572C88.2646 22.0667 88.7593 22.314 89.3659 22.314ZM93.4415 16.21H94.4915L95.5555 20.256L95.6815 20.858C95.8121 21.418 95.9055 21.8427 95.9615 22.132H96.0175C96.1948 21.404 96.3535 20.7787 96.4935 20.256L97.5855 16.21H98.6075L99.7135 20.256L100.189 22.132H100.245L100.693 20.256L101.729 16.21H102.709L100.861 23H99.6015L98.5655 19.206L98.2995 18.1C98.2808 18.0253 98.2155 17.7453 98.1035 17.26H98.0475C97.8421 18.184 97.6788 18.842 97.5575 19.234L96.5495 23H95.3595L93.4415 16.21ZM104.235 16.21H105.075L105.159 17.218H105.201C105.574 16.8447 105.938 16.5553 106.293 16.35C106.657 16.1447 107.054 16.042 107.483 16.042C108.192 16.042 108.715 16.266 109.051 16.714C109.387 17.1527 109.555 17.8107 109.555 18.688V23H108.533V18.814C108.533 18.1607 108.426 17.6847 108.211 17.386C108.006 17.0873 107.665 16.938 107.189 16.938C106.853 16.938 106.54 17.0267 106.251 17.204C105.962 17.372 105.626 17.6473 105.243 18.03V23H104.235V16.21ZM112.942 23.168C112.56 23.168 112.28 23.0513 112.102 22.818C111.925 22.5753 111.836 22.2207 111.836 21.754V13.004H112.844V21.838C112.844 21.9967 112.872 22.118 112.928 22.202C112.994 22.2767 113.073 22.314 113.166 22.314C113.241 22.314 113.325 22.3047 113.418 22.286L113.558 23.07C113.381 23.1353 113.176 23.168 112.942 23.168ZM117.926 23.168C117.366 23.168 116.848 23.028 116.372 22.748C115.896 22.4587 115.514 22.048 115.224 21.516C114.944 20.9747 114.804 20.34 114.804 19.612C114.804 18.884 114.944 18.2493 115.224 17.708C115.514 17.1667 115.896 16.756 116.372 16.476C116.848 16.1867 117.366 16.042 117.926 16.042C118.486 16.042 119.004 16.1867 119.48 16.476C119.956 16.756 120.334 17.1667 120.614 17.708C120.904 18.2493 121.048 18.884 121.048 19.612C121.048 20.34 120.904 20.9747 120.614 21.516C120.334 22.048 119.956 22.4587 119.48 22.748C119.004 23.028 118.486 23.168 117.926 23.168ZM117.926 22.314C118.328 22.314 118.682 22.202 118.99 21.978C119.308 21.754 119.555 21.4367 119.732 21.026C119.91 20.6153 119.998 20.144 119.998 19.612C119.998 19.08 119.91 18.6087 119.732 18.198C119.555 17.7873 119.308 17.47 118.99 17.246C118.682 17.0127 118.328 16.896 117.926 16.896C117.525 16.896 117.166 17.0127 116.848 17.246C116.54 17.47 116.298 17.7873 116.12 18.198C115.952 18.6087 115.868 19.08 115.868 19.612C115.868 20.424 116.06 21.0773 116.442 21.572C116.825 22.0667 117.32 22.314 117.926 22.314ZM124.246 23.168C123.667 23.168 123.191 23 122.818 22.664C122.444 22.328 122.258 21.8567 122.258 21.25C122.258 20.5127 122.594 19.948 123.266 19.556C123.938 19.1547 125.011 18.8747 126.486 18.716C126.486 18.184 126.374 17.75 126.15 17.414C125.935 17.0687 125.562 16.896 125.03 16.896C124.386 16.896 123.7 17.1433 122.972 17.638L122.566 16.938C123.462 16.3407 124.339 16.042 125.198 16.042C125.982 16.042 126.56 16.2893 126.934 16.784C127.307 17.2693 127.494 17.9413 127.494 18.8V23H126.654L126.57 22.174H126.528C125.725 22.8367 124.964 23.168 124.246 23.168ZM124.512 22.342C124.838 22.342 125.156 22.2673 125.464 22.118C125.781 21.9593 126.122 21.7167 126.486 21.39V19.402C125.319 19.542 124.488 19.7567 123.994 20.046C123.508 20.3353 123.266 20.718 123.266 21.194C123.266 21.5767 123.382 21.866 123.616 22.062C123.849 22.2487 124.148 22.342 124.512 22.342ZM132.001 23.168C131.143 23.168 130.461 22.8553 129.957 22.23C129.463 21.6047 129.215 20.732 129.215 19.612C129.215 18.9027 129.351 18.2773 129.621 17.736C129.892 17.1947 130.251 16.7793 130.699 16.49C131.157 16.1913 131.647 16.042 132.169 16.042C132.533 16.042 132.86 16.1073 133.149 16.238C133.439 16.3687 133.756 16.5693 134.101 16.84L134.059 15.664V13.004H135.067V23H134.227L134.143 22.174H134.101C133.812 22.4727 133.485 22.7153 133.121 22.902C132.767 23.0793 132.393 23.168 132.001 23.168ZM132.225 22.3C132.552 22.3 132.86 22.2207 133.149 22.062C133.448 21.9033 133.751 21.6607 134.059 21.334V17.652C133.761 17.3907 133.471 17.204 133.191 17.092C132.911 16.9707 132.622 16.91 132.323 16.91C131.941 16.91 131.591 17.0267 131.273 17.26C130.965 17.4933 130.718 17.8153 130.531 18.226C130.354 18.6367 130.265 19.0987 130.265 19.612C130.265 20.452 130.433 21.11 130.769 21.586C131.115 22.062 131.6 22.3 132.225 22.3ZM139.225 16.21H140.275L141.619 20.172L142.263 22.16H142.319L142.963 20.172L144.307 16.21H145.315L142.879 23H141.703L139.225 16.21ZM146.672 16.21H147.68V23H146.672V16.21ZM147.19 14.754C146.985 14.754 146.817 14.6887 146.686 14.558C146.556 14.4273 146.49 14.2547 146.49 14.04C146.49 13.8347 146.556 13.6713 146.686 13.55C146.817 13.4193 146.985 13.354 147.19 13.354C147.396 13.354 147.564 13.4193 147.694 13.55C147.825 13.6713 147.89 13.8347 147.89 14.04C147.89 14.2547 147.825 14.4273 147.694 14.558C147.564 14.6887 147.396 14.754 147.19 14.754ZM151.603 23.168C151.024 23.168 150.548 23 150.175 22.664C149.802 22.328 149.615 21.8567 149.615 21.25C149.615 20.5127 149.951 19.948 150.623 19.556C151.295 19.1547 152.368 18.8747 153.843 18.716C153.843 18.184 153.731 17.75 153.507 17.414C153.292 17.0687 152.919 16.896 152.387 16.896C151.743 16.896 151.057 17.1433 150.329 17.638L149.923 16.938C150.819 16.3407 151.696 16.042 152.555 16.042C153.339 16.042 153.918 16.2893 154.291 16.784C154.664 17.2693 154.851 17.9413 154.851 18.8V23H154.011L153.927 22.174H153.885C153.082 22.8367 152.322 23.168 151.603 23.168ZM151.869 22.342C152.196 22.342 152.513 22.2673 152.821 22.118C153.138 21.9593 153.479 21.7167 153.843 21.39V19.402C152.676 19.542 151.846 19.7567 151.351 20.046C150.866 20.3353 150.623 20.718 150.623 21.194C150.623 21.5767 150.74 21.866 150.973 22.062C151.206 22.2487 151.505 22.342 151.869 22.342Z" fill="#FBF9FC"/>
<path fill-rule="evenodd" clip-rule="evenodd" d="M31.0866 13C31.0308 13.1548 31 13.3238 31 13.5035V46.8856C31 47.1755 31.0802 47.4374 31.216 47.6572L48.4799 30.3933L31.0866 13ZM50.2787 32.1921L35.9277 46.5432L53.9303 35.8437L50.2787 32.1921ZM56.1868 34.5026L52.0776 30.3933L56.4362 26.0347L61.307 28.9296C62.2666 29.4999 62.2666 30.8892 61.307 31.4595L56.1868 34.5026ZM50.2787 28.5945L34.9479 13.2636L54.1796 24.6936L50.2787 28.5945Z" fill="#FBF9FC"/>
</svg>
