<svg width="28" height="32" viewBox="0 0 28 32" fill="none" xmlns="http://www.w3.org/2000/svg">
<path d="M0.0161758 17.3956C-0.269839 12.5727 3.26422 7.65007 8.46108 7.65007C9.65779 7.65007 10.2005 7.92075 11.5039 8.31529C12.2018 8.52653 13.3844 9.11356 14.0682 9.11356C14.7519 9.11356 15.5725 8.68116 16.6794 8.28624C18.2496 7.726 19.1783 7.66607 20.0856 7.65007C23.1284 7.65007 25.3624 8.88762 26.7867 10.8099C24.4358 12.2982 23.1968 14.1027 23.1284 17.0297C23.1284 19.6906 24.8721 22.285 27.6757 23.4491C26.9919 26.2431 23.2994 31.9972 20.2565 31.9972C19.2116 31.9391 18.5695 31.7804 17.3504 31.332C16.442 30.9446 15.2306 30.6668 14.4442 30.6668C13.6237 30.6335 12.704 30.8922 11.5552 31.332C10.5808 31.705 10.0002 31.9167 8.66618 31.9972C6.13615 32.15 0.523113 25.9437 0.0161758 17.3956Z" fill="url(#paint0_linear_195175_3846)"/>
<path d="M15.7093 2.46133C14.2979 3.93992 13.7604 5.88723 13.863 7.65007C16.1879 7.48376 17.7948 6.55245 19.265 4.82287C20.7352 3.09329 20.746 1.83648 20.7352 0C19.024 0.270883 17.0427 1.06436 15.7093 2.46133Z" fill="url(#paint1_linear_195175_3846)"/>
<defs>
<linearGradient id="paint0_linear_195175_3846" x1="23.3859" y1="4.32" x2="2.21413" y2="25.4263" gradientUnits="userSpaceOnUse">
<stop stop-color="#EB3850"/>
<stop offset="1" stop-color="#CB162E"/>
</linearGradient>
<linearGradient id="paint1_linear_195175_3846" x1="23.3859" y1="4.32" x2="2.21413" y2="25.4263" gradientUnits="userSpaceOnUse">
<stop stop-color="#EB3850"/>
<stop offset="1" stop-color="#CB162E"/>
</linearGradient>
</defs>
</svg>
